
<svg version="1.0" xmlns="http://www.w3.org/2000/svg"
 width="24.000000pt" height="24.000000pt" viewBox="0 0 24.000000 24.000000"
 preserveAspectRatio="xMidYMid meet">

<g transform="translate(0.000000,24.000000) scale(0.100000,-0.100000)"
fill="#8752CC" stroke="none">
<path d="M26 154 c-34 -34 -8 -84 45 -84 40 0 37 18 -3 22 -28 2 -33 7 -33 28
0 21 5 26 33 28 17 2 32 7 32 13 0 15 -57 10 -74 -7z"/>
<path d="M140 161 c0 -6 15 -11 33 -13 27 -2 32 -7 32 -28 0 -21 -5 -26 -32
-28 -41 -4 -44 -22 -4 -22 53 0 79 50 45 84 -17 17 -74 22 -74 7z"/>
<path d="M70 120 c0 -5 23 -10 50 -10 28 0 50 5 50 10 0 6 -22 10 -50 10 -27
0 -50 -4 -50 -10z"/>
</g>
</svg>
