<svg version="1.0" xmlns="http://www.w3.org/2000/svg"
 width="16.000000pt" height="16.000000pt" viewBox="0 0 16.000000 16.000000"
 preserveAspectRatio="xMidYMid meet">

<g transform="translate(0.000000,16.000000) scale(0.100000,-0.100000)"
fill="#8752CC" stroke="none">
<path d="M65 130 c-3 -11 -17 -23 -31 -26 -24 -6 -24 -7 -8 -25 11 -12 14 -27
10 -44 -7 -28 -4 -30 24 -13 16 10 24 10 40 0 28 -17 30 -16 24 16 -4 19 -1
32 11 42 14 12 13 15 -14 26 -17 7 -31 20 -31 29 0 22 -18 19 -25 -5z"/>
</g>
</svg>
